<mxfile host="app.diagrams.net" modified="2022-01-04T15:27:48.286Z" agent="5.0 (Windows NT 10.0; Win64; x64) AppleWebKit/537.36 (KHTML, like Gecko) Chrome/94.0.4606.54 Safari/537.36" etag="a7gKxbibngbo2NyDrJy0" version="16.1.4" type="github">
  <diagram id="x14c-JDdzsFpI21WEJMu" name="Page-1">
    <mxGraphModel dx="782" dy="474" grid="1" gridSize="10" guides="1" tooltips="1" connect="1" arrows="1" fold="1" page="1" pageScale="1" pageWidth="827" pageHeight="1169" math="0" shadow="0">
      <root>
        <mxCell id="0" />
        <mxCell id="1" parent="0" />
        <mxCell id="DPjjiA5ITNXRIr7k10Rs-1" value="Index" style="ellipse;whiteSpace=wrap;html=1;aspect=fixed;fontSize=16;" vertex="1" parent="1">
          <mxGeometry x="40" y="80" width="80" height="80" as="geometry" />
        </mxCell>
        <mxCell id="DPjjiA5ITNXRIr7k10Rs-2" value="0" style="rounded=0;whiteSpace=wrap;html=1;fontSize=16;" vertex="1" parent="1">
          <mxGeometry x="160" y="90" width="50" height="60" as="geometry" />
        </mxCell>
        <mxCell id="DPjjiA5ITNXRIr7k10Rs-3" value="1" style="rounded=0;whiteSpace=wrap;html=1;fontSize=16;" vertex="1" parent="1">
          <mxGeometry x="240" y="90" width="50" height="60" as="geometry" />
        </mxCell>
        <mxCell id="DPjjiA5ITNXRIr7k10Rs-4" value="2" style="rounded=0;whiteSpace=wrap;html=1;fontSize=16;" vertex="1" parent="1">
          <mxGeometry x="320" y="90" width="50" height="60" as="geometry" />
        </mxCell>
        <mxCell id="DPjjiA5ITNXRIr7k10Rs-5" value="3" style="rounded=0;whiteSpace=wrap;html=1;fontSize=16;" vertex="1" parent="1">
          <mxGeometry x="400" y="90" width="50" height="60" as="geometry" />
        </mxCell>
        <mxCell id="DPjjiA5ITNXRIr7k10Rs-6" value="4" style="rounded=0;whiteSpace=wrap;html=1;fontSize=16;" vertex="1" parent="1">
          <mxGeometry x="480" y="90" width="50" height="60" as="geometry" />
        </mxCell>
        <mxCell id="DPjjiA5ITNXRIr7k10Rs-7" value="5" style="rounded=0;whiteSpace=wrap;html=1;fontSize=16;" vertex="1" parent="1">
          <mxGeometry x="560" y="90" width="50" height="60" as="geometry" />
        </mxCell>
        <mxCell id="DPjjiA5ITNXRIr7k10Rs-8" value="6" style="rounded=0;whiteSpace=wrap;html=1;fontSize=16;" vertex="1" parent="1">
          <mxGeometry x="640" y="90" width="50" height="60" as="geometry" />
        </mxCell>
        <mxCell id="DPjjiA5ITNXRIr7k10Rs-9" value="7" style="rounded=0;whiteSpace=wrap;html=1;fontSize=16;" vertex="1" parent="1">
          <mxGeometry x="720" y="90" width="50" height="60" as="geometry" />
        </mxCell>
        <mxCell id="DPjjiA5ITNXRIr7k10Rs-10" value="8" style="rounded=0;whiteSpace=wrap;html=1;fontSize=16;" vertex="1" parent="1">
          <mxGeometry x="800" y="90" width="50" height="60" as="geometry" />
        </mxCell>
        <mxCell id="DPjjiA5ITNXRIr7k10Rs-11" value="9" style="rounded=0;whiteSpace=wrap;html=1;fontSize=16;" vertex="1" parent="1">
          <mxGeometry x="880" y="90" width="50" height="60" as="geometry" />
        </mxCell>
        <mxCell id="DPjjiA5ITNXRIr7k10Rs-12" value="Index" style="ellipse;whiteSpace=wrap;html=1;aspect=fixed;fontSize=16;" vertex="1" parent="1">
          <mxGeometry x="40" y="200" width="80" height="80" as="geometry" />
        </mxCell>
        <mxCell id="DPjjiA5ITNXRIr7k10Rs-13" value="5" style="rounded=0;whiteSpace=wrap;html=1;fontSize=16;" vertex="1" parent="1">
          <mxGeometry x="160" y="210" width="50" height="60" as="geometry" />
        </mxCell>
        <mxCell id="DPjjiA5ITNXRIr7k10Rs-14" value="6" style="rounded=0;whiteSpace=wrap;html=1;fontSize=16;" vertex="1" parent="1">
          <mxGeometry x="240" y="210" width="50" height="60" as="geometry" />
        </mxCell>
        <mxCell id="DPjjiA5ITNXRIr7k10Rs-15" value="5" style="rounded=0;whiteSpace=wrap;html=1;fontSize=16;" vertex="1" parent="1">
          <mxGeometry x="320" y="210" width="50" height="60" as="geometry" />
        </mxCell>
        <mxCell id="DPjjiA5ITNXRIr7k10Rs-16" value="5" style="rounded=0;whiteSpace=wrap;html=1;fontSize=16;" vertex="1" parent="1">
          <mxGeometry x="400" y="210" width="50" height="60" as="geometry" />
        </mxCell>
        <mxCell id="DPjjiA5ITNXRIr7k10Rs-17" value="5" style="rounded=0;whiteSpace=wrap;html=1;fontSize=16;" vertex="1" parent="1">
          <mxGeometry x="480" y="210" width="50" height="60" as="geometry" />
        </mxCell>
        <mxCell id="DPjjiA5ITNXRIr7k10Rs-18" value="" style="rounded=0;whiteSpace=wrap;html=1;fontSize=16;" vertex="1" parent="1">
          <mxGeometry x="560" y="210" width="50" height="60" as="geometry" />
        </mxCell>
        <mxCell id="DPjjiA5ITNXRIr7k10Rs-19" value="" style="rounded=0;whiteSpace=wrap;html=1;fontSize=16;" vertex="1" parent="1">
          <mxGeometry x="640" y="210" width="50" height="60" as="geometry" />
        </mxCell>
        <mxCell id="DPjjiA5ITNXRIr7k10Rs-20" value="" style="rounded=0;whiteSpace=wrap;html=1;fontSize=16;" vertex="1" parent="1">
          <mxGeometry x="720" y="210" width="50" height="60" as="geometry" />
        </mxCell>
        <mxCell id="DPjjiA5ITNXRIr7k10Rs-21" value="" style="rounded=0;whiteSpace=wrap;html=1;fontSize=16;" vertex="1" parent="1">
          <mxGeometry x="800" y="210" width="50" height="60" as="geometry" />
        </mxCell>
        <mxCell id="DPjjiA5ITNXRIr7k10Rs-22" value="" style="rounded=0;whiteSpace=wrap;html=1;fontSize=16;" vertex="1" parent="1">
          <mxGeometry x="880" y="210" width="50" height="60" as="geometry" />
        </mxCell>
        <mxCell id="DPjjiA5ITNXRIr7k10Rs-23" value="" style="shape=flexArrow;endArrow=classic;html=1;rounded=0;fontSize=16;" edge="1" parent="1">
          <mxGeometry width="50" height="50" relative="1" as="geometry">
            <mxPoint x="184.28999999999996" y="380" as="sourcePoint" />
            <mxPoint x="184.28999999999996" y="310" as="targetPoint" />
          </mxGeometry>
        </mxCell>
        <mxCell id="DPjjiA5ITNXRIr7k10Rs-24" value="20" style="rounded=0;whiteSpace=wrap;html=1;fontSize=16;" vertex="1" parent="1">
          <mxGeometry x="160" y="410" width="50" height="60" as="geometry" />
        </mxCell>
        <mxCell id="DPjjiA5ITNXRIr7k10Rs-25" value="head -&amp;gt; O(n)&lt;br&gt;tail -&amp;gt; O(1)&lt;br&gt;middle -&amp;gt;" style="rounded=0;whiteSpace=wrap;html=1;fontSize=16;align=left;" vertex="1" parent="1">
          <mxGeometry x="120" y="550" width="310" height="180" as="geometry" />
        </mxCell>
        <mxCell id="DPjjiA5ITNXRIr7k10Rs-26" value="平均时间复杂度" style="rounded=0;whiteSpace=wrap;html=1;fontSize=16;" vertex="1" parent="1">
          <mxGeometry x="590" y="590" width="120" height="60" as="geometry" />
        </mxCell>
      </root>
    </mxGraphModel>
  </diagram>
</mxfile>
